<?xml version="1.0" encoding="UTF-8" standalone="no"?>
<svg
   width="128"
   height="128"
   viewBox="0 0 24 24"
   version="1.1"
   id="svg1"
   sodipodi:docname="logo.svg"
   inkscape:version="1.4 (e7c3feb100, 2024-10-09)"
   xmlns:inkscape="http://www.inkscape.org/namespaces/inkscape"
   xmlns:sodipodi="http://sodipodi.sourceforge.net/DTD/sodipodi-0.dtd"
   xmlns:xlink="http://www.w3.org/1999/xlink"
   xmlns="http://www.w3.org/2000/svg"
   xmlns:svg="http://www.w3.org/2000/svg">
  <defs
     id="defs1">
    <linearGradient
       id="linearGradient4"
       inkscape:collect="always">
      <stop
         style="stop-color:#6f918a;stop-opacity:1;"
         offset="0"
         id="stop4" />
      <stop
         style="stop-color:#f7c381;stop-opacity:1;"
         offset="1"
         id="stop5" />
    </linearGradient>
    <linearGradient
       inkscape:collect="always"
       xlink:href="#linearGradient4"
       id="linearGradient5"
       x1="6.0919967"
       y1="6.3096733"
       x2="21.857759"
       y2="19.029226"
       gradientUnits="userSpaceOnUse" />
  </defs>
  <sodipodi:namedview
     id="namedview1"
     pagecolor="#ffffff"
     bordercolor="#666666"
     borderopacity="1.0"
     inkscape:showpageshadow="2"
     inkscape:pageopacity="0.0"
     inkscape:pagecheckerboard="0"
     inkscape:deskcolor="#d1d1d1"
     showgrid="false"
     inkscape:zoom="11.203223"
     inkscape:cx="7.4532123"
     inkscape:cy="13.031964"
     inkscape:window-width="1918"
     inkscape:window-height="1172"
     inkscape:window-x="0"
     inkscape:window-y="26"
     inkscape:window-maximized="1"
     inkscape:current-layer="svg1" />
  <path
     id="path4"
     style="overflow:visible;opacity:1;vector-effect:none;fill:url(#linearGradient5);stroke-width:0.235686;stop-color:#000000;stop-opacity:1"
     d="M 12 4.0004883 C 9.11 4.0004883 6.5996094 5.6405273 5.3496094 8.0405273 C 2.3064756 8.3695894 0.00014131268 10.938639 0 13.999512 C 0 17.309512 2.69 19.999512 6 19.999512 L 19.000488 19.999512 C 21.760488 19.999512 24 17.76 24 15 C 24 12.36 21.950586 10.220039 19.350586 10.040039 C 18.657641 6.5294659 15.578309 3.9993567 12 4.0004883 z M 12 6 C 12.603846 6 13.187257 6.1035859 13.73584 6.2871094 L 9.2871094 11.125488 L 9.2871094 6.730957 C 10.112339 6.2552554 11.047485 6.0032912 12 6 z M 14.282227 9.8686523 L 14.496094 9.8686523 C 15.431534 9.8686523 16.15657 10.102593 16.669922 10.570312 C 17.183273 11.032329 17.438965 11.656708 17.438965 12.443848 L 17.438965 12.640137 C 17.438965 12.759919 17.393997 13.330075 17.302734 14.351074 C 17.217176 15.36637 17.173828 16.024842 17.173828 16.327148 L 17.19873 16.694824 C 17.773254 16.594273 18.112852 15.682588 17.871094 11.942871 L 19.220215 12.039551 C 20.780045 12.144316 21.993746 13.43667 22.000488 15 C 22.000488 16.65 20.650488 18 19.000488 18 L 17.286621 18 L 17.302734 18.227051 C 17.302734 18.48943 17.222209 18.655185 17.0625 18.723633 C 16.908495 18.79208 16.655889 18.826172 16.302246 18.826172 C 15.948605 18.826172 15.699239 18.762693 15.556641 18.637207 C 15.516714 18.602987 15.448529 18.531717 15.351562 18.42334 C 15.2603 18.309262 15.198286 18.253418 15.164062 18.253418 C 15.129842 18.247685 15.009055 18.312784 14.803711 18.449707 C 14.267544 18.80335 13.672551 18.983066 13.016602 18.98877 C 12.164369 18.98877 11.577534 18.658777 11.255859 18 L 9.2871094 18 L 9.2871094 15.036621 L 10.369629 13.891113 C 11.035341 14.076874 11.467852 14.319625 11.753906 14.595703 C 12.181712 14.166093 12.796734 13.802677 13.598145 13.504395 C 13.706519 13.464468 13.828926 13.424205 13.96582 13.384277 L 14.538574 13.22168 C 14.818066 13.136121 15.061261 13.027674 15.266602 12.896484 C 15.471942 12.765294 15.574219 12.565447 15.574219 12.297363 C 15.574219 12.029279 15.454895 11.793719 15.215332 11.588379 C 14.981471 11.383038 14.667008 11.279297 14.273438 11.279297 C 13.879868 11.279297 13.424329 11.41096 12.905273 11.67334 C 12.386219 11.930015 11.983438 12.058594 11.698242 12.058594 C 11.418751 12.058594 11.204942 11.974984 11.056641 11.80957 C 10.908339 11.638453 10.833984 11.4339 10.833984 11.194336 C 10.833984 10.86351 11.108187 10.586222 11.655762 10.36377 C 12.460012 10.032943 13.335377 9.8686523 14.282227 9.8686523 z M 6.609375 9.9213867 L 6.4775391 18 L 6 18 C 3.79 18 1.9995117 16.209512 1.9995117 13.999512 C 1.9995117 11.949512 3.5305469 10.239785 5.5605469 10.029785 L 6.609375 9.9213867 z M 15.155273 14.600098 L 15.112793 14.607422 C 14.588033 14.607422 14.053589 14.787138 13.511719 15.146484 C 12.969847 15.50583 12.700195 15.922572 12.700195 16.395996 L 12.700195 16.627441 C 12.700195 16.815671 12.765294 16.986131 12.896484 17.140137 C 13.027674 17.288439 13.184175 17.362793 13.366699 17.362793 L 13.589355 17.362793 C 14.079892 17.362793 14.496633 17.169115 14.838867 16.78125 C 15.181101 16.38768 15.351562 15.987985 15.351562 15.583008 L 15.386719 15.353027 L 15.402832 15.181641 L 15.42041 14.958984 L 15.42041 14.796387 C 15.42041 14.665197 15.332095 14.600098 15.155273 14.600098 z " />
  <!-- Icon from Google Material Icons by Material Design Authors - https://github.com/material-icons/material-icons/blob/master/LICENSE -->
  <text
     xml:space="preserve"
     style="font-size:20px;line-height:1.25;font-family:Arial;-inkscape-font-specification:Arial;text-align:center;text-decoration-color:#000000;letter-spacing:0px;word-spacing:0px;text-anchor:middle;fill:#000000;fill-opacity:0.75;stroke:#000000;stroke-width:0.749999;stroke-linecap:butt;stroke-linejoin:miter;stroke-opacity:1;-inkscape-stroke:none;stop-color:#000000"
     x="17.798817"
     y="14.95858"
     id="text4"><tspan
       sodipodi:role="line"
       id="tspan4"
       style="stroke-width:0.749999"></tspan></text>
</svg>
